<?xml version="1.0" encoding="utf-8"?>
<!-- Generator: Adobe Illustrator 24.3.0, SVG Export Plug-In . SVG Version: 6.00 Build 0)  -->
<svg version="1.1" id="Layer_1" xmlns="http://www.w3.org/2000/svg" xmlns:xlink="http://www.w3.org/1999/xlink" x="0px" y="0px"
	 viewBox="0 0 845 300" style="enable-background:new 0 0 845 300;" xml:space="preserve">
<style type="text/css">
	.st0{fill:#28B463;}
	.st1{fill:#FFFFFF;}
	.st2{fill:#424949;}
</style>
<path class="st0" d="M269.5,300H31.5c-17.1,0-31-13.9-31-31V31c0-17.1,13.9-31,31-31h238.1c17.1,0,31,13.9,31,31V269
	C300.5,286.1,286.6,300,269.5,300z"/>
<path class="st1" d="M33.4,136.9c-0.8,9.1-0.6,18.1,0.9,27.1c0,0.2,0.1,0.4,0.1,0.6c0.9,5,2.2,9.9,4,14.4c2.8,7,6.9,13.4,12.6,18.9
	c7.8,7.7,17.4,11.9,28.2,13.1c8.2,0.9,16.4,0.3,24.2-2.6c14.1-5.2,22.9-15.3,27-29.6h19.8c-0.9,5.1-2.4,10.1-4.6,14.9
	c-2.6,5.8-6.1,11.1-10.4,15.8c-11.2,12.1-25.3,18.2-41.5,19.8c-10,1-19.8,0.3-29.5-2.5c-9.1-2.6-17.2-7-24.3-13.2
	c-10.8-9.5-17.7-21.3-21.7-34.8c-0.4-1.4-0.8-2.8-1.2-4.2c-0.9-3.6-1.6-7.2-2.1-10.8c-0.5-3.7-0.8-7.5-1-11.2
	c-0.4-10.2,0.1-20.3,2.3-30.2c2.6-12.1,7.2-23.4,15-33.2C41.2,76.8,54,68.8,69.6,65.7c13.1-2.6,26.1-2,38.9,2.4
	c9,3.1,16.9,7.8,23.8,14.4c9.6,9.2,15.5,20.3,18.2,33.3c0.1,0.2,0.1,0.5,0.1,0.7c0,0.1,0,0.2,0,0.5h-1.2c-5.9,0-11.8,0-17.8,0
	c-0.8,0-1.2-0.2-1.6-1c-2.3-6.5-5.4-12.6-9.9-17.9C112.4,89.1,102.6,84.3,91,83C82.5,82,74.3,82.8,66.3,86
	c-10.5,4.2-18.3,11.5-24,21.2C36.9,116.4,34.4,126.4,33.4,136.9z"/>
<path class="st1" d="M151.6,164H90.1v-17h61.5v1.3C151.6,153.6,151.7,158.8,151.6,164z"/>
<path class="st2" d="M310.2,186.1c6.7,0,13.3,0,20.1,0c0.1,0.5,0.2,1,0.3,1.5c1,8.2,5.3,14.3,12.2,18.7c6.4,4.1,13.5,5.8,21,6.3
	c6.7,0.5,13.4,0,19.9-1.9c6.2-1.9,11.9-4.8,16.5-9.5c4.4-4.5,6.9-9.9,7.1-16.3c0.2-5.3-0.8-10.2-4.4-14.3c-3.4-3.9-7.6-6.5-12.3-8.5
	c-9.3-4-19-6.3-28.7-9.1c-8.2-2.4-16.3-4.7-23.9-8.7c-5-2.7-9.7-5.8-13.7-9.8c-6-6-9.1-13.5-9.7-21.9c-0.5-6.8,0.3-13.3,3-19.6
	c3.2-7.5,8.4-13.3,14.9-18c7.2-5.2,15.4-8.3,24.1-9.7c11.1-1.8,22.1-1.5,33,1.6c8.8,2.5,16.7,6.9,23.1,13.5
	c7.1,7.3,11.1,16.1,11.4,26.5c-0.6,0-1.2,0-1.7,0c-5.4,0-10.8,0-16.2,0c-0.7,0-1.1-0.1-1.2-0.9c-1.4-9.8-7.2-16.2-15.9-20.2
	c-7.3-3.4-15.1-4.4-23.1-4c-6.4,0.3-12.6,1.6-18.3,4.7c-6.7,3.6-11.7,8.7-13.5,16.2c-2.5,10.3,1.2,18.4,10.2,24.2
	c6.5,4.2,13.9,6.4,21.4,8.5c7.7,2.1,15.5,4.2,23.1,6.5c7.5,2.3,14.7,5.4,21.1,10.1c9.8,7.2,15.7,16.6,16.3,29
	c0.4,8-0.9,15.7-4.5,22.8c-3.9,7.6-9.7,13.5-17,17.9c-8.6,5.1-17.9,7.7-27.8,8.5c-9.5,0.8-18.9,0.5-28.2-1.7
	c-8.7-2-16.6-5.6-23.4-11.5c-9.3-8-14.2-18.3-15.1-30.5C310.1,186.4,310.2,186.3,310.2,186.1z"/>
<path class="st2" d="M756.6,173.6c-29.4,0-58.6,0-88,0c0.2,2.2,0.3,4.3,0.6,6.4c1,7.8,3.6,14.9,8.6,21c5.5,6.7,12.7,10.4,21.1,11.9
	c6.5,1.1,13,0.9,19.3-1.1c8.4-2.6,14.4-7.9,17.8-16.1c0.1-0.3,0.3-0.6,0.5-1.1c6,1.7,12,3.4,18.2,5.1c-1.2,2.7-2.2,5.3-3.5,7.7
	c-6.3,11.1-16.2,17.5-28.3,20.9c-5.7,1.6-11.5,2.1-17.4,2c-8.8-0.1-17.2-1.6-25.2-5.5c-8.5-4.2-15.4-10.3-20.5-18.4
	c-5.9-9.4-8.8-19.7-9.6-30.6c-0.7-8.6-0.3-17.1,1.5-25.5c2.7-12.4,8.1-23.3,17.5-32c8-7.4,17.5-11.5,28.3-12.7
	c10.5-1.1,20.7,0.2,30.3,4.7c10.7,5.1,18.3,13.3,23,24.2c3.2,7.3,4.8,15,5.3,23C756.3,162.6,756.4,168,756.6,173.6z M737.2,157.3
	c0.3-2.5-0.2-7.3-1.3-11.4c-2.8-9.9-8.7-17.4-18.3-21.5c-5.6-2.4-11.5-2.8-17.5-2.2c-5.3,0.5-10.3,2.2-14.7,5.2
	c-7.4,5-12.3,12-14.9,20.5c-0.9,3-1.3,6.2-2,9.4C691.6,157.3,714.4,157.3,737.2,157.3z"/>
<path class="st2" d="M546.8,227.6c-6.2,0-12.3,0-18.6,0c0-0.5,0-1,0-1.5c0-4.6,0-9.3,0-13.9c0-0.3-0.2-0.6-0.3-0.9
	c-0.3,0.2-0.7,0.3-0.9,0.6c-6.6,11.1-16.5,16.8-29.1,18.2c-10.2,1.1-20.1,0-29.3-4.9c-10.9-5.9-17.2-15.1-18.4-27.5
	c-0.5-4.8-0.3-9.6,0.9-14.2c2.1-8,7.1-13.6,14.3-17.4c7.1-3.8,14.8-5.7,22.7-6.9c9.1-1.4,18.2-2.4,27.3-3.7c2.4-0.3,4.9-0.8,7.2-1.5
	c3.9-1.1,5.2-3.1,5.4-7.1c0.2-4.3-0.4-8.4-2.1-12.4c-2.4-5.7-6.6-9.7-12.5-11.3c-10-2.7-19.9-2.3-29.2,2.8c-3.9,2.1-10,7.6-13,14
	c-5.9-2.1-11.7-4.2-17.9-6.4c1.5-2.7,2.8-5.4,4.4-7.9c6-9.2,14.6-14.8,25-17.8c12.2-3.5,24.5-3.7,36.8-0.4
	c11.6,3.2,20,10.1,24.4,21.4c1.8,4.6,2.7,9.4,2.7,14.3c0.1,27.9,0.1,55.8,0.2,83.7C546.8,227.1,546.8,227.3,546.8,227.6z
	 M528.2,167.6c-2.5,0.8-5,1.9-7.5,2.4c-6.1,1.2-12.3,2.2-18.5,3c-6.7,0.9-13.5,1.7-19.9,4c-4.2,1.5-8,3.6-10.6,7.2
	c-3.1,4.3-3.4,9.3-2.5,14.3c1.2,6.3,5.3,10.1,10.9,12.5c6.3,2.7,12.9,3,19.5,2.3c8.3-0.9,15.4-4.2,21.1-10.4
	c5.2-5.7,7.5-12.6,7.5-20.3c0-4.7,0-9.4,0-14.2C528.2,168.2,528.2,167.8,528.2,167.6z"/>
<path class="st1" d="M286.4,167.8c-0.1,10.6-1.7,21-6,30.8c-2.8,6.2-6.4,11.8-11.2,16.6c-8.6,8.6-19.1,13.5-31.3,14.7
	c-7.7,0.7-15.3,0.3-22.8-1.9c-10.9-3.2-19.6-9.5-26.3-18.6c-7-9.5-10.6-20.4-11.7-32.1c-1.2-12.2-0.4-24.2,3.7-35.9
	c2.6-7.5,6.5-14.3,11.9-20.1c8.8-9.4,19.7-14.6,32.5-15.8c10.8-1,21.2,0.2,31,5.2c9.9,5,17.1,12.6,22.3,22.4
	c4.7,8.8,6.9,18.3,7.5,28.2C286.2,163.4,286.2,165.6,286.4,167.8z M267.6,167.9c-0.1-2.1-0.1-4.2-0.3-6.3
	c-0.8-8.2-2.6-16.1-6.9-23.2c-3.8-6.4-8.9-11.5-16.1-14.2c-5.4-2.1-11-2.5-16.7-2c-6.6,0.6-12.6,2.8-17.6,7.2
	c-5.7,5-9.4,11.2-11.6,18.4c-2.9,9.1-3.7,18.4-2.6,27.9c1,8.6,3.2,16.9,8.3,24.1c3.8,5.4,8.6,9.5,14.9,11.8
	c4.6,1.6,9.4,2.2,14.4,1.9c4.1-0.2,8.2-0.8,12-2.5c8.3-3.6,13.7-9.9,17.3-18C266.2,184.9,267.6,176.5,267.6,167.9z"/>
<path class="st2" d="M640.6,62.1c-1.8,5.4-3.6,10.7-5.3,15.9c-2.6-0.6-5.1-1.4-7.6-1.5c-3-0.2-6,0-8.9,0.5c-6,1.1-9.3,5.1-10.5,10.9
	c-0.5,2.3-0.7,4.7-0.7,7c-0.1,3.9,0,7.8,0,11.8c9,0,18,0,27,0c0,5.3,0,10.5,0,15.9c-9,0-17.9,0-27,0c0,35.1,0,70,0,105.1
	c-6.2,0-12.3,0-18.6,0c0-34.9,0-69.9,0-105c-6.6,0-13,0-19.5,0c0-5.3,0-10.5,0-15.8c6.4,0,12.9,0,19.4,0c0-0.6,0.1-1,0.1-1.5
	c0-5.5-0.1-11,0-16.4c0.2-12.2,6-20.9,16.9-26.2c6.2-3,12.9-4,19.8-3.7c5,0.2,9.8,1.1,14.5,2.9C640.2,61.9,640.4,62,640.6,62.1z"/>
<path class="st2" d="M803,125.2c0.3-0.3,0.9-0.5,1-0.9c2.8-6.9,7.7-11.8,14.2-15.3c6.7-3.6,13.9-4.5,21.3-4.1
	c1.5,0.1,3.1,0.1,4.7,0.1c0.7,0,0.9,0.2,0.9,0.9c0,6,0,12,0,18.1c-1.9-0.3-3.7-0.6-5.5-0.8c-7.9-0.9-15.6-0.3-22.6,3.9
	c-8.4,5.1-13.1,12.5-13.6,22.4c-0.1,2.3-0.1,4.6-0.1,6.8c0,23.2,0,46.4,0,69.6c0,0.5,0,1,0,1.6c-6.2,0-12.3,0-18.5,0
	c0-40.3,0-80.5,0-120.8c6,0,11.9,0,17.9,0c0,6,0,12,0,18.1C802.7,124.9,802.9,125.1,803,125.2z"/>
</svg>
